<svg width="187" height="276" viewBox="0 0 187 276" fill="none" xmlns="http://www.w3.org/2000/svg">
<ellipse cx="100.5" cy="121.5" rx="83.5" ry="78.5" fill="#7CD253"/>
<path d="M35.4 89.2C29 89.2 24.2667 88.6 21.2 87.4C18.2667 86.0667 16.3333 84.5333 15.4 82.8C14.6 80.9333 14.2 79.2667 14.2 77.8C14.2 75.9333 15.2667 73.8 17.4 71.4C19.5333 68.8667 23.6667 67 29.8 65.8C35.9333 64.4667 43.2 63.2667 51.6 62.2C60 61 68.9333 60 78.4 59.2C87.8667 58.2667 97.4667 57.4667 107.2 56.8C116.933 56.1333 126.2 55.6667 135 55.4C143.8 55 151.6 54.8 158.4 54.8C165.467 54.8 170.933 55.2 174.8 56C178.667 56.8 181.4 57.8 183 59C184.733 60.2 185.733 61.4667 186 62.8C186.4 64.1333 186.6 65.4 186.6 66.6C186.6 66.8667 186.6 67.0667 186.6 67.2C186.6 68.8 186.2 70.5333 185.4 72.4C184.733 74.2667 183.2 75.8667 180.8 77.2C178.4 78.4 174.8 79 170 79C168.267 79 164.4 79.2667 158.4 79.8C152.4 80.3333 145.067 81 136.4 81.8C127.733 82.6 118.533 83.4 108.8 84.2C107.333 90.2 105.667 97.2 103.8 105.2C102.067 113.2 100.267 121.6 98.4 130.4C96.6667 139.2 95 147.867 93.4 156.4C91.8 164.8 90.4667 172.6 89.4 179.8C88.3333 186.867 87.6 192.667 87.2 197.2C86.6667 203.333 84.8667 207.667 81.8 210.2C78.8667 212.6 75.9333 213.8 73 213.8C70.8667 213.8 68.7333 213.333 66.6 212.4C64.4667 211.6 62.7333 209.8 61.4 207C60.0667 204.067 59.4 199.733 59.4 194C59.4 188.133 59.9333 180.933 61 172.4C62.0667 163.733 63.4667 154.467 65.2 144.6C67.0667 134.733 69.1333 124.8 71.4 114.8C73.8 104.8 76.2667 95.4667 78.8 86.8C69.8667 87.4667 61.6 88.0667 54 88.6C46.4 89 40.2 89.2 35.4 89.2Z" fill="white"/>
</svg>
